<svg width="512" height="512" viewBox="0 0 512 512" fill="none" xmlns="http://www.w3.org/2000/svg">
<path d="M71.825 393.475C71.2583 393.475 69.5583 393.192 66.725 392.625C64.175 392.058 61.625 391.35 59.075 390.5C56.8083 389.65 55.5333 388.658 55.25 387.525C54.6833 382.142 56.1 374.492 59.5 364.575C62.9 354.658 67.4333 343.608 73.1 331.425C79.05 318.958 85.1417 306.775 91.375 294.875C90.2417 294.875 88.9667 294.875 87.55 294.875C86.4167 294.592 85.1417 294.45 83.725 294.45C80.325 293.883 78.625 292.325 78.625 289.775C78.625 288.358 80.1833 287.65 83.3 287.65C85.5667 287.65 87.55 287.792 89.25 288.075C90.95 288.075 92.7917 288.075 94.775 288.075C100.442 277.308 105.683 267.675 110.5 259.175C115.317 250.392 118.717 243.733 120.7 239.2C122.4 236.083 123.533 233.533 124.1 231.55C124.667 229.283 124.95 227.583 124.95 226.45C124.95 224.75 124.667 223.333 124.1 222.2C124.667 218.8 126.65 214.267 130.05 208.6C133.733 202.933 138.267 197.267 143.65 191.6C149.033 185.933 154.842 181.258 161.075 177.575C167.308 173.608 173.117 171.625 178.5 171.625C180.2 171.625 182.75 172.192 186.15 173.325C189.833 174.175 193.375 175.592 196.775 177.575C200.175 179.558 202.3 182.392 203.15 186.075C203.433 186.642 203.575 187.492 203.575 188.625C203.575 189.475 203.15 189.9 202.3 189.9C201.733 189.9 200.883 189.758 199.75 189.475C198.9 188.908 198.192 188.625 197.625 188.625C191.392 188.625 184.592 191.6 177.225 197.55C170.142 203.217 162.775 210.867 155.125 220.5C147.475 230.133 139.825 240.9 132.175 252.8C124.808 264.417 117.725 276.175 110.925 288.075C125.092 287.508 140.108 285.808 155.975 282.975C171.842 279.858 187.567 275.75 203.15 270.65C218.733 265.55 233.183 259.317 246.5 251.95C259.817 244.583 271.008 236.225 280.075 226.875C289.992 216.392 294.95 205.625 294.95 194.575C294.95 186.358 291.833 178.708 285.6 171.625C279.367 164.542 269.592 159.158 256.275 155.475C248.342 153.208 239.275 151.508 229.075 150.375C219.158 149.242 208.392 148.675 196.775 148.675C178.642 148.675 159.942 150.233 140.675 153.35C121.692 156.467 103.842 161.283 87.125 167.8C70.4083 174.033 56.3833 181.967 45.05 191.6C33.7167 201.233 26.9167 212.708 24.65 226.025C23.8 232.825 25.075 238.208 28.475 242.175C31.875 246.142 35.9833 249.258 40.8 251.525C45.9 253.508 49.8667 255.35 52.7 257.05C54.6833 258.75 55.675 260.167 55.675 261.3C55.675 263.283 53.8333 263.992 50.15 263.425C46.1833 262.575 41.225 260.592 35.275 257.475C29.6083 254.358 24.5083 250.108 19.975 244.725C15.725 239.058 13.6 232.542 13.6 225.175C13.6 224.042 13.6 222.908 13.6 221.775C13.8833 220.642 14.1667 219.508 14.45 218.375C14.45 218.092 14.3083 217.242 14.025 215.825C14.025 214.125 14.025 212.708 14.025 211.575C15.725 202.792 19.975 194.575 26.775 186.925C33.8583 178.992 41.7917 172.05 50.575 166.1C59.6417 159.867 68 154.908 75.65 151.225C88.9667 144.708 104.975 139.608 123.675 135.925C142.375 131.958 161.925 129.975 182.325 129.975C194.792 129.975 207.117 130.825 219.3 132.525C231.767 134.225 243.808 136.917 255.425 140.6C271.575 145.983 284.042 154.342 292.825 165.675C301.892 176.725 306 188.342 305.15 200.525C304.3 212.142 300.192 222.625 292.825 231.975C285.742 241.325 276.533 249.542 265.2 256.625C254.15 263.425 241.825 269.375 228.225 274.475C214.908 279.292 201.45 283.258 187.85 286.375C174.817 289.208 160.933 291.333 146.2 292.75C131.75 294.167 118.717 295.017 107.1 295.3C100.3 307.483 94.2083 318.958 88.825 329.725C83.725 340.492 79.9 349.133 77.35 355.65C75.0833 361.883 73.95 366.275 73.95 368.825C73.95 372.792 75.5083 374.775 78.625 374.775C82.5917 374.775 86.8417 372.083 91.375 366.7C94.4917 363.017 97.325 359.617 99.875 356.5C102.708 353.1 105.117 351.683 107.1 352.25C107.383 352.533 107.525 352.958 107.525 353.525C107.525 354.942 106.533 356.925 104.55 359.475C102.567 361.742 101.433 363.017 101.15 363.3C99.1667 366.133 96.475 369.958 93.075 374.775C89.9583 379.592 86.5583 383.842 82.875 387.525C79.475 391.492 75.7917 393.475 71.825 393.475ZM297.962 396.45C278.128 396.45 262.545 393.05 251.212 386.25C239.878 379.733 234.212 370.383 234.212 358.2C234.212 345.733 237.895 334.258 245.262 323.775C252.628 313.008 262.12 303.8 273.737 296.15C285.637 288.217 297.962 282.125 310.712 277.875C323.745 273.342 335.787 271.075 346.837 271.075C352.503 271.075 355.337 271.925 355.337 273.625C355.337 276.175 352.362 277.45 346.412 277.45C335.928 277.45 324.453 280 311.987 285.1C299.803 290.2 288.895 297.283 279.262 306.35C271.612 313.15 265.803 320.092 261.837 327.175C258.153 333.975 256.312 340.35 256.312 346.3C256.312 355.083 260.42 362.45 268.637 368.4C276.853 374.067 289.178 376.9 305.612 376.9C315.245 376.9 325.02 376.192 334.937 374.775C344.853 373.075 353.778 371.233 361.712 369.25C369.928 367.267 376.162 365.708 380.412 364.575C390.895 361.175 401.378 357.067 411.862 352.25C422.628 347.433 432.262 342.05 440.762 336.1C449.262 329.867 455.495 323.633 459.462 317.4C461.728 314 463.287 310.742 464.137 307.625C465.27 304.508 465.837 301.533 465.837 298.7C465.837 290.767 462.295 284.108 455.212 278.725C448.128 273.058 439.062 267.958 428.012 263.425C416.962 258.892 405.203 254.642 392.737 250.675C380.27 246.425 368.512 242.033 357.462 237.5C346.412 232.967 337.345 227.867 330.262 222.2C323.178 216.25 319.637 209.167 319.637 200.95C319.637 191.6 323.037 183.242 329.837 175.875C336.92 168.225 345.845 161.567 356.612 155.9C367.662 149.95 379.42 145.133 391.887 141.45C404.353 137.483 416.253 134.508 427.587 132.525C438.92 130.542 448.27 129.55 455.637 129.55C486.803 129.55 502.387 137.342 502.387 152.925C502.387 159.158 499.837 166.383 494.737 174.6C492.47 178.85 489.212 182.958 484.962 186.925C480.712 190.608 477.453 192.45 475.187 192.45C473.487 192.45 472.637 191.458 472.637 189.475C472.637 188.625 474.195 186.925 477.312 184.375C480.428 181.542 483.545 178.142 486.662 174.175C489.778 170.208 491.337 166.242 491.337 162.275C491.337 156.325 487.937 151.792 481.137 148.675C474.62 145.558 465.978 144 455.212 144C450.112 144 442.745 144.85 433.112 146.55C423.478 147.967 412.995 150.375 401.662 153.775C390.328 157.175 379.42 161.708 368.937 167.375C349.387 178.142 339.612 187.35 339.612 195C339.612 200.667 345.137 206.05 356.187 211.15C364.403 214.833 373.895 218.658 384.662 222.625C395.428 226.592 406.337 230.842 417.387 235.375C428.437 239.908 438.637 245.008 447.987 250.675C457.62 256.342 465.27 262.717 470.937 269.8C476.887 276.6 479.862 284.392 479.862 293.175C479.862 305.075 473.345 317.258 460.312 329.725C450.112 339.358 438.212 348.283 424.612 356.5C411.295 364.717 397.128 371.8 382.112 377.75C367.378 383.7 352.787 388.233 338.337 391.35C323.887 394.75 310.428 396.45 297.962 396.45Z" fill="url(#paint0_linear_12_82)"/>
<defs>
<linearGradient id="paint0_linear_12_82" x1="0" y1="138" x2="480" y2="382" gradientUnits="userSpaceOnUse">
<stop stop-color="#8D5BC1"/>
<stop offset="0.273976" stop-color="#8652BC"/>
<stop offset="0.513638" stop-color="#7E48B7"/>
<stop offset="0.756296" stop-color="#773FB1"/>
<stop offset="1" stop-color="#6F35AC"/>
</linearGradient>
</defs>
</svg>
